<?xml version="1.0" standalone="no"?>
<!DOCTYPE svg PUBLIC "-//W3C//DTD SVG 20010904//EN"
 "http://www.w3.org/TR/2001/REC-SVG-20010904/DTD/svg10.dtd">
<svg version="1.0" xmlns="http://www.w3.org/2000/svg"
 width="1024.000000pt" height="1024.000000pt" viewBox="0 0 1024.000000 1024.000000"
 preserveAspectRatio="xMidYMid meet">
<metadata>
Created by potrace 1.14, written by Peter Selinger 2001-2017
</metadata>
<g transform="translate(0.000000,1024.000000) scale(0.100000,-0.100000)"
fill="#000000" stroke="none">
<path d="M1825 8713 c-86 -18 -198 -85 -248 -148 -16 -20 -43 -66 -60 -103
l-32 -67 -3 -780 -3 -779 2678 -2678 2678 -2678 745 0 c799 0 802 0 902 51 54
28 143 113 175 167 14 23 34 70 44 103 18 57 19 105 20 812 l0 752 -2683 2677
-2683 2678 -755 -1 c-415 -1 -764 -3 -775 -6z"/>
<path d="M5401 8716 c2 -2 85 -54 184 -116 430 -269 834 -570 1240 -923 180
-157 645 -620 810 -807 348 -394 656 -804 935 -1242 69 -108 130 -205 137
-215 18 -28 18 2912 -1 2982 -19 73 -52 131 -104 187 -55 59 -111 94 -193 119
-58 18 -119 19 -1537 19 -811 0 -1473 -2 -1471 -4z"/>
<path d="M1482 3310 l3 -1505 32 -68 c59 -125 176 -220 303 -246 41 -9 439
-11 1518 -9 l1464 3 -158 94 c-969 580 -1850 1379 -2546 2306 -164 218 -385
545 -527 780 l-91 150 2 -1505z"/>
</g>
</svg>
